<svg id="Layer_1" data-name="Layer 1" xmlns="http://www.w3.org/2000/svg" viewBox="0 0 167.2 50"><defs><style>.cls-1{fill:#47f08f;stroke-width:0.8px;}.cls-1,.cls-3{stroke:#fff;}.cls-2,.cls-3{fill:#fff;}.cls-3{stroke-width:0.3px;}</style></defs><title>logo</title><ellipse class="cls-1" cx="83.6" cy="25" rx="83.2" ry="24.6"/><path class="cls-2" d="M298.1,242.8c.2.1.3.1.4.2a1.55,1.55,0,0,1,.8.8,4.56,4.56,0,0,1,.4.8c.4-.4.9-.8,1.5-1.3a4.46,4.46,0,0,1,1.5-1c.5-.1.7.1.8.7a2.4,2.4,0,0,1-.5,1.6l-.1.1a14.54,14.54,0,0,0-1.3,3.2,1.59,1.59,0,0,1,1.3.3,1.78,1.78,0,0,1,.9,1.2c-.3-.3-.6-.4-.9-.2l-.2-.1a3.05,3.05,0,0,1-.8.7,4.89,4.89,0,0,0-1.2,1.3.75.75,0,0,0-.1.5,3.54,3.54,0,0,1-.1.6,10.4,10.4,0,0,0,.2,1.5,5.13,5.13,0,0,0,.5,1.2,5.13,5.13,0,0,1,.5,1.2,2.72,2.72,0,0,1,0,.9l.2.4-.1.4-.3.1a1.79,1.79,0,0,0-1-.9,3.09,3.09,0,0,1-1.2-.9,7.13,7.13,0,0,1-1.2-3l-.1-.1-.3-1.6v-.2a7,7,0,0,1,.2-3.1,14.25,14.25,0,0,0-1.4-1.6,3.79,3.79,0,0,1-1-1.6l.1-.6q0,.75,1.2,1.2c.6.2,1.2.5,1.7.7l.3-1v-.3l.1-.1-.2-1.4a2.09,2.09,0,0,1-.4-.6l-.4-.1v-.1Zm.7,4.8a6.61,6.61,0,0,1,1,1.8h.1a3.92,3.92,0,0,0,.4.9l-.1-.7a.31.31,0,0,0-.1-.2c0-.1-.1-.1-.1-.2a4.51,4.51,0,0,0-2.4-2.9C297.9,246.6,298.3,247,298.8,247.6Zm-1.1-.3h0l.1-.1-.1.1Zm.4,4.3h0l.1-.2h-.1Zm0-.9h0l.1-.2h0Zm.3,3a.91.91,0,0,0,.3.5l-.1-.4c0-.1-.1-.2-.1-.3a.37.37,0,0,1-.1-.3l-.3-1.1Zm.6,1.3v-.2a.44.44,0,0,1-.1-.3.37.37,0,0,1-.1-.3A4.5,4.5,0,0,0,299,255Zm0-4.7a2.64,2.64,0,0,0-.1.7,8.64,8.64,0,0,0,.1,1.5,1.33,1.33,0,0,0,.3.7c.2.3.2.4.2.4.1.8.2,1.2.2,1,0,.2.2.4.4.6,0-.1-.1-.2-.1-.3s-.1-.1-.1-.2c-.4-1.4-.6-2.3-.7-2.7a7.57,7.57,0,0,1-.1-1.5.77.77,0,0,1,.1-.3v-.3l-.1-.3A3.55,3.55,0,0,0,299,250.3Zm-.1-4.1h0l.2-.2h0Zm.1-2.2h0v-.4h-.1Zm3.3-1c-.3.3-.5.5-.6.5a2.19,2.19,0,0,0-.5.3c-.1,0-.1.1-.2.3s-.2.3-.3.3a3.32,3.32,0,0,1-.8,1.1,5.3,5.3,0,0,0-.8,1.5l.2.3.1-.1a1.62,1.62,0,0,1,.4-1c.2-.3.4-.5.6-.8q0-.3.9-1.2a6.05,6.05,0,0,1,.9-.9h.2a7.46,7.46,0,0,1-1.3,1.5c-.9,1.4-1.5,2.3-1.6,2.5a8.18,8.18,0,0,1,1,2.4,3.54,3.54,0,0,1,.1.6c0,.2.1.4.1.6,0-.2.1-.5.2-1.1s.2-.9.2-1a6.89,6.89,0,0,0,.4-1v-.2l.6-1.5a5.27,5.27,0,0,1,.6-1.3c.1-.1.2-.4.5-.8a5.44,5.44,0,0,0,.4-.8,4.33,4.33,0,0,0,.1-.5h-.2v-.1h.2v-.1c-.1-.3-.2-.5-.5-.4A7.53,7.53,0,0,1,302.3,243Zm-3.2,1.3.1-.2-.1-.3Zm.1.2v.2c.1-.2.1-.2,0-.2Zm0,.8h0l.1-.1v-.1Zm.1-.2h.2c0-.1,0-.1-.1-.2C299.4,245.1,299.4,245.1,299.3,245.1Zm.1,5.8v-.3l-.1-.1A1.58,1.58,0,0,1,299.4,250.9Zm.1-.7.1.2h.1l-.2-.2Zm.5.6a3.54,3.54,0,0,1,.1.6v-.1a1.21,1.21,0,0,1-.1-.5.91.91,0,0,1-.3-.5A.74.74,0,0,0,300,250.8Zm-.2,4.9h0l.1-.1-.1.1Zm.1.7h.2v-.1l-.2.1Zm0-4.3.2.3h.1l-.3-.3Zm0-.4h0v.2l.1-.1c0-.1,0-.1-.1-.1Zm.1,1.4.1.2h.1l-.2-.2Zm0-.2h0l.1.1v.2l.2.4h-.1a6.38,6.38,0,0,0,.6.9v-.2l-.2-.4c-.1,0-.1-.1-.2-.2s-.1-.5-.2-1.1l-.2.1Zm.4-5.6c0,.1,0,.1-.1.1h-.1l.2-.1C300.3,247.2,300.3,247.3,300.4,247.3Zm0,1.1h0c-.1-.1-.1-.1,0-.2Zm.5-1.4c0,.2-.1.3-.1.4v-.1h0v-.1l.1-.2Zm-.1,9.1.1.1h0l-.1-.1Zm.3-.5.1-.1-.1-.1Zm.4,2h0c.1,0,.1,0,.2-.1a.1.1,0,0,0,.1-.1.1.1,0,0,1-.1-.1C301.6,257.4,301.5,257.4,301.5,257.6Zm1-14.4-.1.1.1-.1Zm.1,5.2h.3c-.1-.1-.1-.1-.2-.1A.1.1,0,0,0,302.6,248.4Zm.5-5.6q-.15,0-.3.3v-.2l.1-.1Z" transform="translate(-166.4 -225)"/><path class="cls-3" d="M184,245.1a4.77,4.77,0,0,1,1.6-.8,3.93,3.93,0,0,1,1.4-.3,2.88,2.88,0,0,1,1.9.6,1.61,1.61,0,0,1,.6,1.3,3.07,3.07,0,0,1-1.4,2.3c.4,0,.8-.1,1.1-.1a6.68,6.68,0,0,1,3,.6,1.82,1.82,0,0,1,1,1.1,2.92,2.92,0,0,1,.2.9c0,1.3-.9,2.4-2.7,3.6a14.8,14.8,0,0,1-5.6,1.9,11.56,11.56,0,0,1-1.7.1.76.76,0,0,1-.5-.2c-.1-.1-.1-.3-.1-.7V244.7c0-.5.2-.8.5-.8s.5.3.5.8v.4Zm0,1.1v2.9a11,11,0,0,0,2.3-.9,4.12,4.12,0,0,0,1.7-1.4,1.08,1.08,0,0,0,.2-.8.91.91,0,0,0-.3-.7,1.22,1.22,0,0,0-.9-.3,5.34,5.34,0,0,0-2,.5A6.07,6.07,0,0,0,184,246.2Zm0,3.9v5.1a16.44,16.44,0,0,0,2.2-.3,20.63,20.63,0,0,0,3.5-1.2,12.74,12.74,0,0,0,1.9-1.3,1.89,1.89,0,0,0,.7-1.4,1.15,1.15,0,0,0-.6-1.1,5.46,5.46,0,0,0-2.9-.6A11,11,0,0,0,184,250.1Z" transform="translate(-166.4 -225)"/><path class="cls-3" d="M199.1,254.6l-.5,1.2a.63.63,0,0,1-.6.5c-.1,0-.2-.1-.4-.2s-.2-.2-.2-.3a1.09,1.09,0,0,1,.1-.5l4.6-10.9q.3-.6.6-.6c.2,0,.4.2.6.7l3.8,9h.8c.5,0,.8.2.8.5s-.3.5-.8.5h-.3l.3.8a1,1,0,0,1,.1.4.76.76,0,0,1-.2.4.52.52,0,0,1-.4.2q-.3,0-.6-.6l-.5-1.2-7.2.1Zm.4-1.1h6.6l-3.3-7.8Z" transform="translate(-166.4 -225)"/><path class="cls-3" d="M214.8,246.4v9.2c0,.5-.2.8-.6.8a.55.55,0,0,1-.5-.3,4.33,4.33,0,0,1-.1-.5V244.8c0-.3,0-.5.1-.6a.46.46,0,0,1,.5-.3c.2,0,.3.1.5.3s.3.3.4.5L221,254V242.1c0-.5.2-.8.5-.8a.55.55,0,0,1,.5.3,4.33,4.33,0,0,1,.1.5v13.5c0,.3,0,.5-.1.6a.52.52,0,0,1-.4.2.72.72,0,0,1-.6-.4Z" transform="translate(-166.4 -225)"/><path class="cls-3" d="M229.2,254.6l-.5,1.2a.63.63,0,0,1-.6.5c-.1,0-.2-.1-.4-.2s-.2-.2-.2-.3a1.09,1.09,0,0,1,.1-.5l4.6-10.9q.3-.6.6-.6c.2,0,.4.2.6.7l3.8,9h.8c.5,0,.8.2.8.5s-.3.5-.8.5h-.3l.3.8a1,1,0,0,1,.1.4.76.76,0,0,1-.2.4.52.52,0,0,1-.4.2q-.3,0-.6-.6l-.5-1.2-7.2.1Zm.5-1.1h6.6l-3.3-7.8Z" transform="translate(-166.4 -225)"/><path class="cls-3" d="M244.9,246.4v9.2c0,.5-.2.8-.6.8a.55.55,0,0,1-.5-.3,4.33,4.33,0,0,1-.1-.5V244.8c0-.3,0-.5.1-.6a.46.46,0,0,1,.5-.3c.2,0,.3.1.5.3s.3.3.4.5l5.9,9.3V242.1c0-.5.2-.8.5-.8a.55.55,0,0,1,.5.3,4.33,4.33,0,0,1,.1.5v13.5c0,.3,0,.5-.1.6a.52.52,0,0,1-.4.2.72.72,0,0,1-.6-.4Z" transform="translate(-166.4 -225)"/><path class="cls-3" d="M259.3,254.6l-.5,1.2a.63.63,0,0,1-.6.5c-.1,0-.2-.1-.4-.2s-.2-.2-.2-.3a1.09,1.09,0,0,1,.1-.5l4.6-10.9q.3-.6.6-.6c.2,0,.4.2.6.7l3.8,9h.8c.5,0,.8.2.8.5s-.3.5-.8.5h-.3l.3.8a1,1,0,0,1,.1.4.76.76,0,0,1-.2.4.52.52,0,0,1-.4.2q-.3,0-.6-.6l-.5-1.2-7.2.1Zm.5-1.1h6.6l-3.3-7.8Z" transform="translate(-166.4 -225)"/><path class="cls-3" d="M283.2,251.8l8.1-10.4c.2-.3.4-.4.5-.4a.55.55,0,0,1,.5.3.35.35,0,0,0,.1.2.76.76,0,0,1-.2.4l-8.3,10.6,10.5,2.7c.4.1.6.3.6.5a.37.37,0,0,1-.1.3c-.1.2-.2.3-.4.3a.37.37,0,0,1-.3-.1l-10.9-2.7v2c0,.5-.2.8-.5.8a.55.55,0,0,1-.5-.3,4.33,4.33,0,0,1-.1-.5V244.6c0-.5.2-.8.5-.8s.5.3.5.8v7.2Z" transform="translate(-166.4 -225)"/><path class="cls-3" d="M309.1,245a6.57,6.57,0,0,1,1.2-.6,6.87,6.87,0,0,1,2.4-.5,4.53,4.53,0,0,1,3,1,3.93,3.93,0,0,1,1.5,3.2c0,2.3-1.4,4.3-4.1,6.1a16.67,16.67,0,0,1-3.5,1.8,3.63,3.63,0,0,1-1.1.3c-.3,0-.4-.1-.5-.4V244.6c0-.5.2-.8.5-.8s.5.3.5.8l.1.4Zm0,1.3v8.8a14.46,14.46,0,0,0,3.9-2c2.1-1.5,3.1-3,3.1-4.8a3.17,3.17,0,0,0-.9-2.3,3.39,3.39,0,0,0-2.6-1,5.08,5.08,0,0,0-1.7.3A4.6,4.6,0,0,0,309.1,246.3Z" transform="translate(-166.4 -225)"/></svg>